# xmcd
#
# Track frame offsets: 
#        150
#        18092
#        36361
#        54284
#
# Disc length: 967 seconds
#
# Revision: 1
# Processed by: cddbd v1.5.2PL0 Copyright (c) Steve Scherf et al.
# Submitted via: ExactAudioCopyFreeDBPlugin 1.0
#
DISCID=2503c504
DTITLE=絢香 - コトノハ
DYEAR=2017
DGENRE=JPop
TTITLE0=コトノハ
TTITLE1=センチメント
TTITLE2=コトノハ (Instrumental)
TTITLE3=センチメント (Instrumental)
EXTD=
EXTT0=
EXTT1=
EXTT2=
EXTT3=
PLAYORDER=
